<svg width="447" height="144" viewBox="0 0 447 144" fill="none" xmlns="http://www.w3.org/2000/svg">
<path d="M42.6646 73.3732L18.7881 97.7001V131.836H0V0H18.7881V73.7656L90.0263 0H111.554L55.5814 59.2479L115.468 131.836H93.549L42.6646 73.3732Z" fill="white"/>
<path d="M252.465 121.243L259.902 107.117C268.513 113.003 281.821 117.319 294.738 117.319C311.569 117.319 318.223 112.218 318.223 103.586C318.223 81.2209 255.205 100.447 255.205 60.8177C255.205 42.7687 271.253 30.9976 296.695 30.9976C309.612 30.9976 324.486 34.5289 333.097 40.0221L325.269 54.1474C316.266 48.2618 306.481 46.3 296.695 46.3C281.039 46.3 273.21 52.1855 273.21 60.0329C273.21 83.5751 336.229 64.349 336.229 103.194C336.229 121.243 319.789 132.621 293.173 132.621C277.124 133.014 260.685 127.913 252.465 121.243Z" fill="white"/>
<path d="M447 71.411V131.836H429.778V118.495C423.906 127.52 412.555 132.621 396.898 132.621C374.196 132.621 360.105 120.457 360.105 103.193C360.105 87.1058 370.282 74.1576 400.03 74.1576H428.603V70.6262C428.603 55.3238 419.601 46.6917 401.987 46.6917C390.244 46.6917 378.11 51.0077 370.282 57.2857L362.845 43.5527C373.022 35.3129 387.896 30.6045 403.944 30.6045C431.735 30.9969 447 44.3374 447 71.411ZM428.995 101.231V87.1058H401.204C383.199 87.1058 378.11 94.1684 378.11 102.408C378.11 112.217 386.33 118.495 400.03 118.495C413.729 118.888 424.689 113.002 428.995 101.231Z" fill="white"/>
<path d="M194.535 105.549V132.23L205.886 125.56V98.8784L194.535 105.549Z" fill="white"/>
<path d="M225.849 72.9812L179.27 45.9076L153.436 30.9976L127.994 75.3354L128.385 116.927L174.573 144L179.27 141.254V102.017L200.015 65.5261L221.152 77.6896V116.927L225.849 114.18V72.9812Z" fill="white"/>
</svg>
